<?xml version="1.0" encoding="utf-8"?>
<!-- Generator: Adobe Illustrator 22.1.0, SVG Export Plug-In . SVG Version: 6.00 Build 0)  -->
<svg version="1.1" id="Layer_1" xmlns="http://www.w3.org/2000/svg" xmlns:xlink="http://www.w3.org/1999/xlink" x="0px" y="0px"
	 viewBox="0 0 40 40" style="enable-background:new 0 0 40 40;" xml:space="preserve">
<style type="text/css">
	.st0{display:none;}
	.st1{display:inline;}
	.st2{display:inline;fill-opacity:0.8;}
</style>
<g>
	<circle class="st0" cx="20" cy="20" r="20"/>
	<g>
		<path id="a" d="M28.6,23.4v1.1c0,0.7-0.1,1.4-0.2,2c-0.1,0.7-0.5,1.3-1.1,1.7h0c-0.6,0.5-1.3,0.7-2,0.8l-0.6,0
			c-0.9,0.1-1.8-0.3-2.3-1c-0.6-0.8-0.8-1.8-0.4-2.7v0c0.3-0.9,1-1.5,1.9-1.8l2.2-0.6c0.6-0.1,1-0.7,1-1.3V20v-6.6
			c0-0.2-0.1-0.3-0.2-0.4s-0.3-0.1-0.4-0.1l-9.4,2c-0.3,0.1-0.6,0.4-0.6,0.7v10.5v0.8c0,0.7-0.1,1.4-0.2,2c-0.1,0.7-0.5,1.3-1.1,1.7
			h0c-0.6,0.5-1.3,0.7-2,0.8l-0.6,0c-0.9,0.1-1.8-0.3-2.3-1c-0.6-0.8-0.8-1.8-0.4-2.7v0c0.3-0.9,1-1.5,1.9-1.8l2.2-0.6
			c0.6-0.1,1-0.7,1-1.3v-1.6V10.3c0-0.5,0.4-1,0.9-1.1L27.7,7c0.2,0,0.4,0,0.6,0.2c0.2,0.1,0.3,0.4,0.3,0.6L28.6,23.4L28.6,23.4z"/>
	</g>
	<g class="st0">
		<path id="a_1_" class="st1" d="M28.6,23.4v1.1c0,0.7-0.1,1.4-0.2,2c-0.1,0.7-0.5,1.3-1.1,1.7h0c-0.6,0.5-1.3,0.7-2,0.8l-0.6,0
			c-0.9,0.1-1.8-0.3-2.3-1c-0.6-0.8-0.8-1.8-0.4-2.7v0c0.3-0.9,1-1.5,1.9-1.8l2.2-0.6c0.6-0.1,1-0.7,1-1.3V20v-6.6
			c0-0.2-0.1-0.3-0.2-0.4s-0.3-0.1-0.4-0.1l-9.4,2c-0.3,0.1-0.6,0.4-0.6,0.7v10.5v0.8c0,0.7-0.1,1.4-0.2,2c-0.1,0.7-0.5,1.3-1.1,1.7
			h0c-0.6,0.5-1.3,0.7-2,0.8l-0.6,0c-0.9,0.1-1.8-0.3-2.3-1c-0.6-0.8-0.8-1.8-0.4-2.7v0c0.3-0.9,1-1.5,1.9-1.8l2.2-0.6
			c0.6-0.1,1-0.7,1-1.3v-1.6V10.3c0-0.5,0.4-1,0.9-1.1L27.7,7c0.2,0,0.4,0,0.6,0.2c0.2,0.1,0.3,0.4,0.3,0.6L28.6,23.4L28.6,23.4z"/>
	</g>
	<g class="st0">
		<path id="a_2_" class="st2" d="M28.6,23.4v1.1c0,0.7-0.1,1.4-0.2,2c-0.1,0.7-0.5,1.3-1.1,1.7h0c-0.6,0.5-1.3,0.7-2,0.8l-0.6,0
			c-0.9,0.1-1.8-0.3-2.3-1c-0.6-0.8-0.8-1.8-0.4-2.7v0c0.3-0.9,1-1.5,1.9-1.8l2.2-0.6c0.6-0.1,1-0.7,1-1.3V20v-6.6
			c0-0.2-0.1-0.3-0.2-0.4s-0.3-0.1-0.4-0.1l-9.4,2c-0.3,0.1-0.6,0.4-0.6,0.7v10.5v0.8c0,0.7-0.1,1.4-0.2,2c-0.1,0.7-0.5,1.3-1.1,1.7
			h0c-0.6,0.5-1.3,0.7-2,0.8l-0.6,0c-0.9,0.1-1.8-0.3-2.3-1c-0.6-0.8-0.8-1.8-0.4-2.7v0c0.3-0.9,1-1.5,1.9-1.8l2.2-0.6
			c0.6-0.1,1-0.7,1-1.3v-1.6V10.3c0-0.5,0.4-1,0.9-1.1L27.7,7c0.2,0,0.4,0,0.6,0.2c0.2,0.1,0.3,0.4,0.3,0.6L28.6,23.4L28.6,23.4z"/>
	</g>
	<g class="st0">
		<path id="a_3_" class="st2" d="M28.6,23.4v1.1c0,0.7-0.1,1.4-0.2,2c-0.1,0.7-0.5,1.3-1.1,1.7h0c-0.6,0.5-1.3,0.7-2,0.8l-0.6,0
			c-0.9,0.1-1.8-0.3-2.3-1c-0.6-0.8-0.8-1.8-0.4-2.7v0c0.3-0.9,1-1.5,1.9-1.8l2.2-0.6c0.6-0.1,1-0.7,1-1.3V20v-6.6
			c0-0.2-0.1-0.3-0.2-0.4s-0.3-0.1-0.4-0.1l-9.4,2c-0.3,0.1-0.6,0.4-0.6,0.7v10.5v0.8c0,0.7-0.1,1.4-0.2,2c-0.1,0.7-0.5,1.3-1.1,1.7
			h0c-0.6,0.5-1.3,0.7-2,0.8l-0.6,0c-0.9,0.1-1.8-0.3-2.3-1c-0.6-0.8-0.8-1.8-0.4-2.7v0c0.3-0.9,1-1.5,1.9-1.8l2.2-0.6
			c0.6-0.1,1-0.7,1-1.3v-1.6V10.3c0-0.5,0.4-1,0.9-1.1L27.7,7c0.2,0,0.4,0,0.6,0.2c0.2,0.1,0.3,0.4,0.3,0.6L28.6,23.4L28.6,23.4z"/>
	</g>
</g>
</svg>
