<?xml version="1.0" encoding="utf-8"?>
<!-- Generator: Adobe Illustrator 22.1.0, SVG Export Plug-In . SVG Version: 6.00 Build 0)  -->
<svg version="1.1" xmlns="http://www.w3.org/2000/svg" xmlns:xlink="http://www.w3.org/1999/xlink" x="0px" y="0px"
	 viewBox="0 0 720 720" style="enable-background:new 0 0 720 720;" xml:space="preserve">
<style type="text/css">
	.st0{display:none;}
	.st1{display:inline;stroke:#BFBFBF;stroke-width:20;stroke-miterlimit:10;}
	.st2{display:inline;stroke:#BFBFBF;stroke-width:10;stroke-miterlimit:10;}
	.st3{fill:#FF0000;}
	.st4{fill:#F9F9F9;}
	.st5{fill:#FFF77A;}
</style>
<g id="Layer_2" class="st0">
	
		<rect x="120.6" y="120.6" transform="matrix(0.7035 -0.7107 0.7107 0.7035 -149.0296 362.4117)" class="st1" width="478.4" height="478.4"/>
	<rect x="135.9" y="132.9" class="st1" width="451.2" height="451.2"/>
	
		<rect x="84.5" y="346.5" transform="matrix(0.7035 -0.7107 0.7107 0.7035 -226.1603 174.9317)" class="st2" width="24.1" height="24.1"/>
	<rect x="348.9" y="82.6" transform="matrix(0.7035 -0.7107 0.7107 0.7035 39.8034 284.4863)" class="st2" width="24" height="24"/>
	
		<rect x="351.2" y="610.5" transform="matrix(0.7035 -0.7107 0.7107 0.7035 -334.7261 442.7477)" class="st2" width="24" height="24"/>
	<rect x="613.8" y="348" transform="matrix(0.7035 -0.7107 0.7107 0.7035 -70.294 551.5046)" class="st2" width="24" height="24"/>
	
		<rect x="536.9" y="533.9" transform="matrix(-1 2.566086e-04 -2.566086e-04 -1 1098.0319 1091.6484)" class="st2" width="24.1" height="24.1"/>
	
		<rect x="163.5" y="531.9" transform="matrix(-1 2.566086e-04 -2.566086e-04 -1 351.0099 1087.6625)" class="st2" width="24" height="24"/>
	
		<rect x="536.9" y="158.7" transform="matrix(-1 2.566086e-04 -2.566086e-04 -1 1097.8296 341.134)" class="st2" width="24" height="24"/>
	
		<rect x="165.6" y="156.8" transform="matrix(-1 2.566086e-04 -2.566086e-04 -1 355.2722 337.5726)" class="st2" width="24" height="24"/>
</g>
<g id="Layer_1">
	<path class="st3" d="M672.4,378c0.5,178.8-137.1,322.9-309.5,324.1C190.6,703.4,49.7,560.8,47.6,383
		C45.6,201.6,186.2,54.8,361.5,55.4C534.5,56,671.9,198.6,672.4,378z"/>
	<path class="st4" d="M586.7,277c-63.9,20-127.7,40.1-191.6,60.1c55.2,91.7,131.8,126.1,168.2,105.5c34.3-19.4,31.4-86.5,30.8-97.3"
		/>
	<path class="st5" d="M157.3,265.4c1.4-9.6,77.1,12.3,114.1-29.2c29.6-33.2,14.6-84.5,21.3-85.2c9-0.9,56.9,90.6,12.4,136.4
		C257,336.9,155.7,276.7,157.3,265.4z"/>
	<path class="st5" d="M380.2,132.2c1.4-9.6,77.1,12.3,114.1-29.2C524,69.9,509,18.5,515.6,17.9c9-0.9,56.9,90.6,12.4,136.4
		C479.8,203.7,378.5,143.6,380.2,132.2z"/>
</g>
</svg>
