<?xml version="1.0" encoding="utf-8"?>
<!-- Generator: Adobe Illustrator 22.1.0, SVG Export Plug-In . SVG Version: 6.00 Build 0)  -->
<svg version="1.1" id="Layer_1" xmlns="http://www.w3.org/2000/svg" xmlns:xlink="http://www.w3.org/1999/xlink" x="0px" y="0px"
	 viewBox="0 0 2500 1430" style="enable-background:new 0 0 2500 1430;" xml:space="preserve">
<path d="M140.5,558.8c-5.3,0-9.7,4.3-10.3,10.1l-24.4,222.6l24.4,217.7c0.7,5.8,5,10,10.3,10c5.2,0,9.5-4.2,10.3-10l27.7-217.7
	l-27.7-222.7C149.9,563,145.7,558.8,140.5,558.8L140.5,558.8z M48.8,644.1c-5.2,0-9.3,4-9.9,9.7L20.7,791.6l18.2,135.3
	c0.7,5.7,4.7,9.7,9.9,9.7c5,0,9.1-4,9.9-9.7l21.4-135.3L58.7,653.8C57.9,648.1,53.8,644.1,48.8,644.1L48.8,644.1z M237.8,515.2
	c-6.5,0-11.7,5.1-12.4,12.2l-23.1,264.2l23.1,254.4c0.7,7.1,5.9,12.2,12.4,12.2c6.4,0,11.6-5.1,12.5-12.1l26.2-254.5l-26.2-264.2
	C249.5,520.3,244.2,515.2,237.8,515.2L237.8,515.2z M336,505.9c-7.7,0-13.9,6.1-14.5,14.3l-21.9,271.4l21.9,262.6
	c0.6,8.1,6.8,14.3,14.5,14.3c7.7,0,13.9-6.1,14.6-14.3l24.8-262.6l-24.8-271.5C349.9,512,343.7,505.9,336,505.9L336,505.9z
	 M451.6,539.7c-0.6-9.3-7.8-16.3-16.6-16.3c-9,0-16.1,7-16.7,16.5l-20.6,251.7l20.6,264.8c0.6,9.4,7.7,16.5,16.7,16.5
	c8.8,0,16-7.1,16.6-16.5l23.5-264.8L451.6,539.7L451.6,539.7z M534.9,363.5c-10,0-18.3,8.1-18.8,18.7l-19.4,409.7l19.4,264.7
	c0.5,10.3,8.7,18.6,18.8,18.6c9.8,0,18.1-8.3,18.7-18.7v0.1l21.9-264.7L553.6,382C553,371.6,544.7,363.5,534.9,363.5L534.9,363.5z
	 M633.9,269c-11.3,0-20.4,9.2-20.9,20.7l-18.1,503.4l18.1,263.1c0.5,11.5,9.7,20.6,20.9,20.6c11.1,0,20.4-9.2,20.8-20.7v0.1
	l20.6-263.1l-20.6-503.4C654.3,278.2,645,269,633.9,269L633.9,269z M736.9,223.6c-12.5,0-22.6,10-23,22.9l-17,545.3l17,260.3
	c0.4,12.7,10.5,22.7,23,22.7c12.3,0,22.4-10,22.9-22.8v0.2l19-260.4l-19-545.3C759.3,233.6,749.2,223.6,736.9,223.6L736.9,223.6z
	 M864.1,228.1c-0.5-14-11.5-25-25.1-25c-13.7,0-24.8,11-25.1,25l-15.7,563.7l15.7,258.8c0.2,13.7,11.4,24.8,25.1,24.8
	c13.6,0,24.6-11,25.1-25l17.6-258.6L864.1,228.1L864.1,228.1z M864.1,1050.5v0.2V1050.5z M942,215.4c-14.9,0-26.9,11.9-27.2,27.1
	l-14.4,549.3l14.4,256.3c0.3,15.1,12.3,27,27.2,27s26.8-12,27.3-27.2v0.3l16.1-256.4l-16.1-549.3C968.8,227.4,956.8,215.4,942,215.4
	L942,215.4z M1045.8,233.4c-16.1,0-29,12.9-29.4,29.3l-13.1,529.2l13.1,254.6c0.3,16.2,13.2,29.1,29.3,29.1s29.1-12.9,29.4-29.3v0.2
	l14.8-254.6l-14.8-529.3C1075,246.5,1061.9,233.5,1045.8,233.4L1045.8,233.4z M1167.7,136.1c-5.1-3.4-11.2-5.3-17.3-5.3
	c-6.3,0-12.1,1.9-17,5.1c-8.9,5.8-14.3,15.6-14.4,26.2l-0.2,6L1107,791.8c0,0.4,11.9,253.1,11.9,253.1v1c0.4,7.1,3,13.6,7.4,18.8
	c5.9,7.2,14.7,11.4,24.1,11.5c8.5,0,16.3-3.6,22-9.3c5.7-5.7,9.3-13.5,9.5-22.1l1.3-25.1l11.9-227.8l-13.3-629.8
	C1181.6,151.7,1176.4,142,1167.7,136.1L1167.7,136.1z M1181.8,1045v-0.1V1045v-0.2v0.1V1045z M1271.6,76.4
	c-12-7.4-27.4-6.2-38.2,2.8c-7.7,6.3-12.3,15.8-12.4,25.8l-0.1,3.5L1207.1,792l7,126.3l6.8,123c0.2,18.2,15.3,33.2,33.5,33.2
	c18.3,0,33.4-15.1,33.6-33.5v0.3L1303,792l-14.9-687C1287.9,93.3,1281.6,82.5,1271.6,76.4L1271.6,76.4z M2195.1,466.9
	c-41.8,0-81.6,8.4-118,23.7C2052.8,215.7,1822.3,0.2,1541.3,0.2c-66.7,0.1-132.9,12.4-195.2,36.4c-23,8.9-29.1,18.1-29.3,35.9v967.9
	c0.3,18.7,14.7,33.1,32.9,34.9c0.8,0.1,845.3,0,845.3,0c168.5,0,304.9-134.9,304.9-303.4C2500,603.4,2363.5,466.9,2195.1,466.9
	L2195.1,466.9z M264.1,1258.8c-35.7-8.4-45.4-13-45.4-27.1c0-9.9,8-20.3,32.2-20.3c20.6,0,36.7,8.3,51.2,23.2l32.6-31.5
	c-21.3-22.2-47.1-35.5-82.2-35.5c-44.4,0-80.5,25.2-80.5,66.1c0,44.4,29,57.7,70.6,67.2c42.5,9.7,50.2,16.2,50.2,30.7
	c0,17-12.6,24.5-39.3,24.5c-21.6,0-41.8-7.5-57.7-25.9l-32.5,29c17,25.1,49.9,40.9,87.6,40.9c61.5,0,88.6-28.9,88.6-71.8
	C339.6,1279.3,299.9,1267.2,264.1,1258.8L264.1,1258.8z M471.6,1167.6c-61.5,0-97.8,47.7-97.8,116.3c0,68.7,36.4,116.3,97.8,116.3
	c61.6,0,97.9-47.6,97.9-116.3C569.5,1215.3,533.2,1167.6,471.6,1167.6z M471.6,1355.5c-36.4,0-51.5-31.3-51.5-71.6
	s15.1-71.5,51.5-71.5c36.5,0,51.6,31.3,51.6,71.5C523.2,1324.1,508.1,1355.5,471.6,1355.5z M751.5,1297.8c0,36-17.7,58.3-46.3,58.3
	c-28.7,0-46.1-22.9-46.1-59v-126H614v126.6c0,65.7,36.7,102.4,91.2,102.4c57.3,0,91.4-37.7,91.4-103v-126h-45.1L751.5,1297.8
	L751.5,1297.8z M991.2,1266.6c0,12.5,0.6,40.9,0.6,49.2c-2.8-5.8-10.2-17-15.7-25.5l-79.9-119.1h-43.2v225.5h44.5v-99.2
	c0-12.6-0.7-40.9-0.7-49.2c2.9,5.8,10.3,17,15.7,25.5l82.9,123h40.2v-225.5h-44.4L991.2,1266.6L991.2,1266.6z M1164.1,1171.2h-70.4
	v225.5h67.2c58,0,115.4-33.5,115.4-112.8C1276.3,1201.4,1228.5,1171.2,1164.1,1171.2z M1160.9,1352.8h-22.2v-137.8h24
	c47.6,0,67.3,22.8,67.3,68.8C1229.9,1325.2,1208.2,1352.8,1160.9,1352.8L1160.9,1352.8z M1415.7,1212.4c20.3,0,33.1,9.1,41.3,24.4
	l41.7-19.2c-14.2-29.4-39.8-50-82.4-50c-59,0-100.2,47.7-100.2,116.3c0,71.2,39.6,116.3,98.6,116.3c40.9,0,67.9-18.9,83.4-51
	l-38.1-22.5c-11.9,20-23.8,28.8-44.1,28.8c-33.8,0-53.5-31.1-53.5-71.6C1362.5,1242,1381.9,1212.4,1415.7,1212.4z M1583,1171.2
	h-45.1v225.5h135.6v-44.4h-90.5L1583,1171.2L1583,1171.2L1583,1171.2z M1792.1,1167.6c-61.5,0-97.9,47.7-97.9,116.3
	c0,68.7,36.5,116.3,97.9,116.3c61.6,0,98-47.6,98-116.3C1890.1,1215.3,1853.7,1167.6,1792.1,1167.6z M1792.1,1355.5
	c-36.4,0-51.5-31.3-51.5-71.6s15.2-71.5,51.5-71.5c36.5,0,51.5,31.3,51.5,71.5C1843.7,1324.1,1828.6,1355.5,1792.1,1355.5
	L1792.1,1355.5z M2072.1,1297.8c0,36-17.6,58.3-46.3,58.3c-28.7,0-46.1-22.9-46.1-59v-126h-45.1v126.6c0,65.7,36.7,102.4,91.2,102.4
	c57.3,0,91.5-37.7,91.5-103v-126h-45.2L2072.1,1297.8L2072.1,1297.8z M2244.1,1171.2h-70.6v225.5h67.2
	c58.1,0,115.4-33.5,115.4-112.8C2356.1,1201.4,2308.6,1171.2,2244.1,1171.2L2244.1,1171.2z M2240.8,1352.8h-22.1v-137.8h23.8
	c47.6,0,67.2,22.8,67.2,68.8C2309.7,1325.2,2288.2,1352.8,2240.8,1352.8z"/>
</svg>
